<?xml version="1.0" standalone="no"?>
<!DOCTYPE svg PUBLIC "-//W3C//DTD SVG 20010904//EN"
 "http://www.w3.org/TR/2001/REC-SVG-20010904/DTD/svg10.dtd">
<svg version="1.0" xmlns="http://www.w3.org/2000/svg"
 width="260.000000pt" height="260.000000pt" viewBox="0 0 260.000000 260.000000"
 preserveAspectRatio="xMidYMid meet">
<metadata>
Created by potrace 1.11, written by Peter Selinger 2001-2013
</metadata>
<g transform="translate(0.000000,260.000000) scale(0.100000,-0.100000)"
fill="#000000" stroke="none">
<path d="M1587 2563 c-2 -1 -96 -3 -209 -3 -305 -2 -385 -27 -427 -133 -22
-57 -38 -117 -46 -168 -7 -46 -15 -440 -9 -411 10 43 20 21 19 -44 0 -73 -10
-87 -75 -104 -78 -20 -134 -26 -355 -35 -122 -5 -149 -8 -220 -26 -80 -21
-109 -57 -122 -151 -21 -158 10 -506 52 -588 29 -55 80 -86 165 -98 48 -8 380
-9 495 -2 l70 4 1 -245 c0 -260 9 -333 55 -438 39 -92 85 -99 404 -66 111 12
136 14 215 21 47 3 95 10 107 15 33 12 53 49 64 120 10 62 14 304 5 344 -2 11
-7 66 -11 122 l-7 103 29 11 c18 8 124 12 299 13 238 2 274 4 297 19 65 42 76
122 72 512 -3 307 -7 349 -33 405 -34 70 -94 82 -332 66 -173 -11 -222 -10
-231 5 -10 16 -13 84 -8 204 1 44 3 152 3 240 2 296 -11 319 -178 314 -48 -2
-88 -4 -89 -6z"/>
</g>
</svg>
