<?xml version="1.0" standalone="no"?>
<!DOCTYPE svg PUBLIC "-//W3C//DTD SVG 20010904//EN"
 "http://www.w3.org/TR/2001/REC-SVG-20010904/DTD/svg10.dtd">
<svg version="1.0" xmlns="http://www.w3.org/2000/svg"
 width="16.000000pt" height="16.000000pt" viewBox="0 0 16.000000 16.000000"
 preserveAspectRatio="xMidYMid meet">
<metadata>
Created by potrace 1.11, written by Peter Selinger 2001-2013
</metadata>
<g transform="translate(0.000000,16.000000) scale(0.001479,-0.001479)"
fill="#000000" stroke="none">
<path d="M6 8731 c-5 -12 1 -4257 7 -4286 3 -16 9 -61 12 -100 3 -38 8 -83 11
-100 3 -16 7 -43 10 -60 71 -439 249 -850 509 -1172 63 -79 219 -242 280 -293
294 -247 621 -418 1010 -529 82 -23 288 -67 360 -77 28 -4 58 -8 69 -10 10 -2
43 -6 72 -9 30 -3 80 -8 112 -11 104 -12 515 -11 637 2 213 22 230 24 336 45
57 11 115 22 129 25 14 3 39 9 57 15 17 5 44 12 59 15 49 9 241 74 342 115
793 328 1311 939 1486 1755 25 119 30 146 41 239 3 28 9 66 13 85 4 19 7 706
7 1525 l0 1490 810 -1 c722 0 971 -5 1070 -19 17 -2 50 -6 75 -10 275 -34 549
-113 765 -221 88 -45 251 -149 310 -199 103 -87 295 -304 295 -333 0 -6 4 -12
9 -14 10 -3 53 -81 112 -198 39 -79 105 -274 115 -337 3 -21 7 -45 10 -53 3
-8 8 -33 10 -55 3 -22 7 -46 9 -52 19 -58 27 -506 13 -668 -21 -235 -75 -437
-168 -630 -47 -98 -145 -263 -169 -285 -4 -3 -24 -27 -46 -55 -124 -155 -327
-313 -537 -416 -165 -80 -441 -165 -633 -195 -27 -4 -52 -8 -55 -9 -3 -1 -36
-5 -75 -9 -38 -5 -79 -10 -90 -12 -62 -12 -259 -17 -660 -18 l-450 -1 0 -678
0 -677 45 -1 c161 -2 1076 2 1125 5 145 10 222 17 245 21 14 2 50 7 80 10 47
6 175 26 308 50 19 3 73 15 120 26 48 11 94 22 102 24 8 2 42 10 75 19 33 9
70 19 82 22 12 2 84 25 160 50 400 132 740 314 1075 574 133 104 391 369 498
512 224 299 374 591 474 918 20 63 37 126 40 140 2 14 11 54 19 90 20 83 44
228 52 305 4 33 9 74 11 90 17 124 23 546 10 705 -9 105 -16 185 -21 225 -5
47 -19 149 -20 155 -1 3 -5 28 -9 55 -4 28 -12 66 -16 85 -5 19 -11 46 -14 60
-3 14 -7 35 -10 48 -4 12 -8 31 -10 41 -44 197 -188 550 -291 716 -14 22 -28
47 -32 55 -12 26 -134 202 -197 284 -143 184 -388 411 -596 553 -328 222 -766
409 -1166 498 -64 14 -315 65 -344 69 -210 34 -294 45 -475 60 -44 4 -107 10
-140 13 -33 2 -826 6 -1762 7 l-1703 3 -1 -2001 c0 -1927 -1 -2079 -14 -2174
-42 -314 -157 -573 -332 -749 -183 -183 -390 -279 -688 -318 -47 -6 -331 -7
-360 -1 -11 2 -42 7 -70 10 -68 9 -221 51 -281 77 -136 59 -296 174 -369 265
-22 27 -42 51 -45 54 -15 14 -82 125 -113 186 -58 115 -115 294 -133 414 -3
19 -7 42 -9 50 -16 57 -19 409 -19 2183 -1 1767 -3 1998 -16 2001 -24 7 -1541
3 -1544 -3z"/>
</g>
</svg>
