<svg version="1" xmlns="http://www.w3.org/2000/svg" width="21.333" height="21.333" viewBox="0 0 16.000000 16.000000"><path d="M.009 3.087C0 3.105.01 9.383.019 9.426c.005.024.014.09.018.148.004.056.012.123.016.148.005.023.01.063.015.088.105.65.368 1.258.753 1.734.093.117.324.358.414.433a3.94 3.94 0 0 0 1.494.783c.121.034.426.099.532.113l.102.015c.015.003.064.01.107.013l.165.017c.154.018.762.016.943-.003.315-.033.34-.036.496-.067l.191-.037a.907.907 0 0 0 .085-.022 4.598 4.598 0 0 0 .593-.192C7.115 12.112 7.882 11.208 8.14 10c.037-.176.045-.216.061-.353.004-.042.013-.098.02-.126.005-.028.01-1.044.01-2.255V5.063l1.198.001c1.067 0 1.436.008 1.582.028l.111.015c.407.05.812.167 1.132.327.13.067.37.22.458.294.152.129.436.45.436.493 0 .009.006.018.014.02.014.005.078.12.165.293.058.117.156.406.17.499.005.03.01.066.015.078a.428.428 0 0 1 .015.082c.004.032.01.068.013.076.028.086.04.749.02.988-.032.348-.111.647-.249.932a2.77 2.77 0 0 1-.25.422 2.448 2.448 0 0 1-.862.697 3.896 3.896 0 0 1-1.129.314l-.133.018c-.091.018-.383.025-.976.027l-.665.001V12.672l.066.002c.238.003 1.591-.003 1.664-.008a5.784 5.784 0 0 0 .48-.046c.07-.008.26-.038.456-.073a12.342 12.342 0 0 0 .328-.074c.012-.003.063-.015.111-.029l.122-.032c.017-.003.124-.037.236-.074a5.14 5.14 0 0 0 1.59-.849 5.5 5.5 0 0 0 .737-.757 4.31 4.31 0 0 0 .76-1.565c.003-.02.016-.08.028-.133.03-.123.065-.337.077-.451l.016-.133c.025-.184.034-.808.015-1.043a9.043 9.043 0 0 0-.074-.643c-.006-.042-.018-.098-.024-.126a2.297 2.297 0 0 1-.02-.089c-.005-.02-.01-.052-.015-.07a4.458 4.458 0 0 0-.493-1.2 5.743 5.743 0 0 0-.29-.422 4.365 4.365 0 0 0-.882-.818 5.304 5.304 0 0 0-1.725-.736c-.095-.02-.466-.096-.509-.102a7.413 7.413 0 0 0-.702-.089l-.207-.02c-.05-.002-1.222-.008-2.606-.01l-2.519-.004-.001 2.96c0 2.85-.002 3.074-.021 3.215-.062.464-.232.847-.491 1.108-.27.27-.577.412-1.018.47-.07.009-.49.01-.532.001a2.266 2.266 0 0 1-.52-.129 1.635 1.635 0 0 1-.612-.471 2.119 2.119 0 0 1-.167-.275 2.364 2.364 0 0 1-.21-.686c-.023-.085-.028-.605-.028-3.23-.001-2.613-.004-2.954-.024-2.959-.035-.01-2.279-.004-2.283.005z"/></svg>