<svg version="1" xmlns="http://www.w3.org/2000/svg" width="346.667" height="346.667" viewBox="0 0 260.000000 260.000000"><path d="M158.7 3.7c-.2.1-9.6.3-20.9.3-30.5.2-38.5 2.7-42.7 13.3-2.2 5.7-3.8 11.7-4.6 16.8-.7 4.6-1.5 44-.9 41.1 1-4.3 2-2.1 1.9 4.4 0 7.3-1 8.7-7.5 10.4-7.8 2-13.4 2.6-35.5 3.5-12.2.5-14.9.8-22 2.6-8 2.1-10.9 5.7-12.2 15.1-2.1 15.8 1 50.6 5.2 58.8 2.9 5.5 8 8.6 16.5 9.8 4.8.8 38 .9 49.5.2l7-.4.1 24.5c0 26 .9 33.3 5.5 43.8 3.9 9.2 8.5 9.9 40.4 6.6 11.1-1.2 13.6-1.4 21.5-2.1 4.7-.3 9.5-1 10.7-1.5 3.3-1.2 5.3-4.9 6.4-12 1-6.2 1.4-30.4.5-34.4-.2-1.1-.7-6.6-1.1-12.2l-.7-10.3 2.9-1.1c1.8-.8 12.4-1.2 29.9-1.3 23.8-.2 27.4-.4 29.7-1.9 6.5-4.2 7.6-12.2 7.2-51.2-.3-30.7-.7-34.9-3.3-40.5-3.4-7-9.4-8.2-33.2-6.6-17.3 1.1-22.2 1-23.1-.5-1-1.6-1.3-8.4-.8-20.4.1-4.4.3-15.2.3-24 .2-29.6-1.1-31.9-17.8-31.4-4.8.2-8.8.4-8.9.6z"/></svg>